{
	"asset":{
		"generator":"Khronos glTF Blender I/O v4.0.44",
		"version":"2.0"
	},
	"scene":0,
	"scenes":[
		{
			"name":"Scene",
			"nodes":[
				0
			]
		}
	],
	"nodes":[
		{
			"mesh":0,
			"name":"PiCarFrame3_V2b"
		}
	],
	"meshes":[
		{
			"name":"PiCarFrame3_V2b",
			"primitives":[
				{
					"attributes":{
						"POSITION":0,
						"NORMAL":1
					},
					"indices":2
				}
			]
		}
	],
	"accessors":[
		{
			"bufferView":0,
			"componentType":5126,
			"count":1530,
			"max":[
				25,
				4,
				25
			],
			"min":[
				-25,
				0,
				-25
			],
			"type":"VEC3"
		},
		{
			"bufferView":1,
			"componentType":5126,
			"count":1530,
			"type":"VEC3"
		},
		{
			"bufferView":2,
			"componentType":5123,
			"count":9168,
			"type":"SCALAR"
		}
	],
	"bufferViews":[
		{
			"buffer":0,
			"byteLength":18360,
			"byteOffset":0,
			"target":34962
		},
		{
			"buffer":0,
			"byteLength":18360,
			"byteOffset":18360,
			"target":34962
		},
		{
			"buffer":0,
			"byteLength":18336,
			"byteOffset":36720,
			"target":34963
		}
	],
	"buffers":[
		{
			"byteLength":55056,
			"uri":"plaquette-8ca62fb01fc4911fe67d28b477caeeca.bin"
		}
	]
}
