{
	"asset":{
		"generator":"Khronos glTF Blender I/O v4.0.44",
		"version":"2.0"
	},
	"scene":0,
	"scenes":[
		{
			"name":"Scene",
			"nodes":[
				0
			]
		}
	],
	"nodes":[
		{
			"mesh":0,
			"name":"Parcours Picar"
		}
	],
	"meshes":[
		{
			"name":"Parcours Picar",
			"primitives":[
				{
					"attributes":{
						"POSITION":0,
						"NORMAL":1
					},
					"indices":2
				}
			]
		}
	],
	"accessors":[
		{
			"bufferView":0,
			"componentType":5126,
			"count":6047,
			"max":[
				528.1246337890625,
				10,
				921.7840576171875
			],
			"min":[
				-1491.8753662109375,
				0,
				-1098.2159423828125
			],
			"type":"VEC3"
		},
		{
			"bufferView":1,
			"componentType":5126,
			"count":6047,
			"type":"VEC3"
		},
		{
			"bufferView":2,
			"componentType":5123,
			"count":11448,
			"type":"SCALAR"
		}
	],
	"bufferViews":[
		{
			"buffer":0,
			"byteLength":72564,
			"byteOffset":0,
			"target":34962
		},
		{
			"buffer":0,
			"byteLength":72564,
			"byteOffset":72564,
			"target":34962
		},
		{
			"buffer":0,
			"byteLength":22896,
			"byteOffset":145128,
			"target":34963
		}
	],
	"buffers":[
		{
			"byteLength":168024,
			"uri":"parcours-7b120311a89363c4c31076f5202db2a4.bin"
		}
	]
}
