{
	"asset":{
		"generator":"Khronos glTF Blender I/O v4.0.44",
		"version":"2.0"
	},
	"extensionsUsed":[
		"KHR_materials_specular",
		"KHR_materials_ior"
	],
	"scene":0,
	"scenes":[
		{
			"name":"Scene",
			"nodes":[
				0,
				1,
				2,
				3,
				4
			]
		}
	],
	"nodes":[
		{
			"mesh":0,
			"name":"Body",
			"scale":[
				0.0625,
				0.0625,
				0.0625
			],
			"translation":[
				-0.008252996020019054,
				0.07626625150442123,
				0
			]
		},
		{
			"mesh":1,
			"name":"FL",
			"scale":[
				0.0625,
				0.0625,
				0.0625
			],
			"translation":[
				-0.12029562145471573,
				0.030471500009298325,
				0.042603500187397
			]
		},
		{
			"mesh":2,
			"name":"FR",
			"rotation":[
				0,
				-1,
				0,
				1.6292068494294654e-07
			],
			"scale":[
				0.0625,
				0.0625,
				0.0625
			],
			"translation":[
				-0.12029562145471573,
				0.030471500009298325,
				-0.04270331189036369
			]
		},
		{
			"mesh":3,
			"name":"RL",
			"scale":[
				0.0625,
				0.0625,
				0.0625
			],
			"translation":[
				0.12309187650680542,
				0.030471500009298325,
				0.042603500187397
			]
		},
		{
			"mesh":4,
			"name":"RR",
			"rotation":[
				0,
				-1,
				0,
				1.6292068494294654e-07
			],
			"scale":[
				0.0625,
				0.0625,
				0.0625
			],
			"translation":[
				0.12309187650680542,
				0.030471500009298325,
				-0.04270331189036369
			]
		}
	],
	"materials":[
		{
			"doubleSided":true,
			"name":"Metal Bodywork",
			"pbrMetallicRoughness":{
				"baseColorFactor":[
					0.800000011920929,
					0.800000011920929,
					0.800000011920929,
					1
				],
				"roughnessFactor":0.25
			}
		},
		{
			"doubleSided":true,
			"name":"Black parts",
			"pbrMetallicRoughness":{
				"baseColorFactor":[
					0,
					0,
					0,
					1
				],
				"metallicFactor":0,
				"roughnessFactor":0.5
			}
		},
		{
			"doubleSided":true,
			"name":"Unbreakable glass ;)",
			"pbrMetallicRoughness":{
				"baseColorFactor":[
					0.10247394442558289,
					0.10247394442558289,
					0.10247394442558289,
					1
				],
				"roughnessFactor":0
			}
		},
		{
			"doubleSided":true,
			"name":"Glossy black",
			"pbrMetallicRoughness":{
				"baseColorFactor":[
					0,
					0,
					0,
					1
				],
				"metallicFactor":0,
				"roughnessFactor":0
			}
		},
		{
			"alphaMode":"BLEND",
			"doubleSided":true,
			"name":"Lights glass",
			"pbrMetallicRoughness":{
				"roughnessFactor":0
			}
		},
		{
			"doubleSided":true,
			"name":"Light casing",
			"pbrMetallicRoughness":{
				"baseColorFactor":[
					0.800000011920929,
					0.800000011920929,
					0.800000011920929,
					1
				],
				"roughnessFactor":0.25
			}
		},
		{
			"doubleSided":true,
			"name":"Headlights",
			"pbrMetallicRoughness":{
				"baseColorFactor":[
					0.3108136057853699,
					0.3108136057853699,
					0.3108136057853699,
					1
				],
				"metallicFactor":0,
				"roughnessFactor":0
			}
		},
		{
			"doubleSided":true,
			"name":"Rear lights",
			"pbrMetallicRoughness":{
				"baseColorFactor":[
					0.24619503319263458,
					0,
					0.00041492670425213873,
					1
				],
				"metallicFactor":0,
				"roughnessFactor":0
			}
		},
		{
			"doubleSided":true,
			"name":"Bed Cover",
			"pbrMetallicRoughness":{
				"baseColorFactor":[
					0,
					0,
					0,
					1
				],
				"metallicFactor":0,
				"roughnessFactor":0.25
			}
		},
		{
			"doubleSided":true,
			"extensions":{
				"KHR_materials_specular":{
					"specularFactor":0.8500000238418579
				},
				"KHR_materials_ior":{
					"ior":1.4500000476837158
				}
			},
			"name":"Tire",
			"pbrMetallicRoughness":{
				"baseColorFactor":[
					0,
					0,
					0,
					1
				],
				"metallicFactor":0,
				"roughnessFactor":0.75
			}
		},
		{
			"doubleSided":true,
			"name":"Wheel",
			"pbrMetallicRoughness":{
				"baseColorFactor":[
					0,
					0,
					0,
					1
				],
				"metallicFactor":0,
				"roughnessFactor":0.25
			}
		}
	],
	"meshes":[
		{
			"name":"Plane.001",
			"primitives":[
				{
					"attributes":{
						"POSITION":0,
						"NORMAL":1,
						"TEXCOORD_0":2
					},
					"indices":3,
					"material":0
				},
				{
					"attributes":{
						"POSITION":4,
						"NORMAL":5,
						"TEXCOORD_0":6
					},
					"indices":7,
					"material":1
				},
				{
					"attributes":{
						"POSITION":8,
						"NORMAL":9,
						"TEXCOORD_0":10
					},
					"indices":11,
					"material":2
				},
				{
					"attributes":{
						"POSITION":12,
						"NORMAL":13,
						"TEXCOORD_0":14
					},
					"indices":15,
					"material":3
				},
				{
					"attributes":{
						"POSITION":16,
						"NORMAL":17,
						"TEXCOORD_0":18
					},
					"indices":19,
					"material":4
				},
				{
					"attributes":{
						"POSITION":20,
						"NORMAL":21,
						"TEXCOORD_0":22
					},
					"indices":23,
					"material":5
				},
				{
					"attributes":{
						"POSITION":24,
						"NORMAL":25,
						"TEXCOORD_0":26
					},
					"indices":27,
					"material":6
				},
				{
					"attributes":{
						"POSITION":28,
						"NORMAL":29,
						"TEXCOORD_0":30
					},
					"indices":31,
					"material":7
				},
				{
					"attributes":{
						"POSITION":32,
						"NORMAL":33,
						"TEXCOORD_0":34
					},
					"indices":35,
					"material":8
				}
			]
		},
		{
			"name":"Circle.009",
			"primitives":[
				{
					"attributes":{
						"POSITION":36,
						"NORMAL":37,
						"TEXCOORD_0":38
					},
					"indices":39,
					"material":9
				},
				{
					"attributes":{
						"POSITION":40,
						"NORMAL":41,
						"TEXCOORD_0":42
					},
					"indices":43,
					"material":10
				}
			]
		},
		{
			"name":"Circle.010",
			"primitives":[
				{
					"attributes":{
						"POSITION":44,
						"NORMAL":45,
						"TEXCOORD_0":46
					},
					"indices":39,
					"material":9
				},
				{
					"attributes":{
						"POSITION":47,
						"NORMAL":48,
						"TEXCOORD_0":49
					},
					"indices":43,
					"material":10
				}
			]
		},
		{
			"name":"Circle.011",
			"primitives":[
				{
					"attributes":{
						"POSITION":50,
						"NORMAL":51,
						"TEXCOORD_0":52
					},
					"indices":39,
					"material":9
				},
				{
					"attributes":{
						"POSITION":53,
						"NORMAL":54,
						"TEXCOORD_0":55
					},
					"indices":43,
					"material":10
				}
			]
		},
		{
			"name":"Circle.012",
			"primitives":[
				{
					"attributes":{
						"POSITION":56,
						"NORMAL":57,
						"TEXCOORD_0":58
					},
					"indices":39,
					"material":9
				},
				{
					"attributes":{
						"POSITION":59,
						"NORMAL":60,
						"TEXCOORD_0":61
					},
					"indices":43,
					"material":10
				}
			]
		}
	],
	"accessors":[
		{
			"bufferView":0,
			"componentType":5126,
			"count":1090,
			"max":[
				3.269969940185547,
				0.7037670612335205,
				1.0595086812973022
			],
			"min":[
				-2.622498035430908,
				-0.8144747018814087,
				-1.0595086812973022
			],
			"type":"VEC3"
		},
		{
			"bufferView":1,
			"componentType":5126,
			"count":1090,
			"type":"VEC3"
		},
		{
			"bufferView":2,
			"componentType":5126,
			"count":1090,
			"type":"VEC2"
		},
		{
			"bufferView":3,
			"componentType":5123,
			"count":1818,
			"type":"SCALAR"
		},
		{
			"bufferView":4,
			"componentType":5126,
			"count":656,
			"max":[
				3.223156452178955,
				-0.053850412368774414,
				1.0595086812973022
			],
			"min":[
				-2.6012773513793945,
				-0.8901025652885437,
				-1.0595086812973022
			],
			"type":"VEC3"
		},
		{
			"bufferView":5,
			"componentType":5126,
			"count":656,
			"type":"VEC3"
		},
		{
			"bufferView":6,
			"componentType":5126,
			"count":656,
			"type":"VEC2"
		},
		{
			"bufferView":7,
			"componentType":5123,
			"count":1104,
			"type":"SCALAR"
		},
		{
			"bufferView":8,
			"componentType":5126,
			"count":118,
			"max":[
				1.2177488803863525,
				0.7037670612335205,
				0.8893985152244568
			],
			"min":[
				-1.856867790222168,
				0.06475687026977539,
				-0.8893985152244568
			],
			"type":"VEC3"
		},
		{
			"bufferView":9,
			"componentType":5126,
			"count":118,
			"type":"VEC3"
		},
		{
			"bufferView":10,
			"componentType":5126,
			"count":118,
			"type":"VEC2"
		},
		{
			"bufferView":11,
			"componentType":5123,
			"count":204,
			"type":"SCALAR"
		},
		{
			"bufferView":12,
			"componentType":5126,
			"count":166,
			"max":[
				3.269969940185547,
				0.7037670612335205,
				0.9467384219169617
			],
			"min":[
				-1.8590800762176514,
				0.1043933629989624,
				-0.9467384219169617
			],
			"type":"VEC3"
		},
		{
			"bufferView":13,
			"componentType":5126,
			"count":166,
			"type":"VEC3"
		},
		{
			"bufferView":14,
			"componentType":5126,
			"count":166,
			"type":"VEC2"
		},
		{
			"bufferView":15,
			"componentType":5123,
			"count":318,
			"type":"SCALAR"
		},
		{
			"bufferView":16,
			"componentType":5126,
			"count":90,
			"max":[
				3.269138813018799,
				0.6953585147857666,
				0.9418569803237915
			],
			"min":[
				-2.6216516494750977,
				-0.1683875322341919,
				-0.9418569803237915
			],
			"type":"VEC3"
		},
		{
			"bufferView":17,
			"componentType":5126,
			"count":90,
			"type":"VEC3"
		},
		{
			"bufferView":18,
			"componentType":5126,
			"count":90,
			"type":"VEC2"
		},
		{
			"bufferView":19,
			"componentType":5123,
			"count":162,
			"type":"SCALAR"
		},
		{
			"bufferView":20,
			"componentType":5126,
			"count":80,
			"max":[
				3.2654809951782227,
				0.6959362030029297,
				0.9418318271636963
			],
			"min":[
				-2.6160919666290283,
				-0.1683875322341919,
				-0.9418318271636963
			],
			"type":"VEC3"
		},
		{
			"bufferView":21,
			"componentType":5126,
			"count":80,
			"type":"VEC3"
		},
		{
			"bufferView":22,
			"componentType":5126,
			"count":80,
			"type":"VEC2"
		},
		{
			"bufferView":23,
			"componentType":5123,
			"count":144,
			"type":"SCALAR"
		},
		{
			"bufferView":24,
			"componentType":5126,
			"count":22,
			"max":[
				-0.1678692102432251,
				0.6959362030029297,
				0.9324048161506653
			],
			"min":[
				-2.599583625793457,
				-0.166456937789917,
				-0.9324048161506653
			],
			"type":"VEC3"
		},
		{
			"bufferView":25,
			"componentType":5126,
			"count":22,
			"type":"VEC3"
		},
		{
			"bufferView":26,
			"componentType":5126,
			"count":22,
			"type":"VEC2"
		},
		{
			"bufferView":27,
			"componentType":5123,
			"count":36,
			"type":"SCALAR"
		},
		{
			"bufferView":28,
			"componentType":5126,
			"count":8,
			"max":[
				3.254362106323242,
				0.24214613437652588,
				0.939635694026947
			],
			"min":[
				3.249922752380371,
				0.2044767141342163,
				-0.939635694026947
			],
			"type":"VEC3"
		},
		{
			"bufferView":29,
			"componentType":5126,
			"count":8,
			"type":"VEC3"
		},
		{
			"bufferView":30,
			"componentType":5126,
			"count":8,
			"type":"VEC2"
		},
		{
			"bufferView":31,
			"componentType":5123,
			"count":18,
			"type":"SCALAR"
		},
		{
			"bufferView":32,
			"componentType":5126,
			"count":34,
			"max":[
				3.2123851776123047,
				0.5441956520080566,
				0.7839924097061157
			],
			"min":[
				1.2177026271820068,
				0.2453477382659912,
				-0.7839924097061157
			],
			"type":"VEC3"
		},
		{
			"bufferView":33,
			"componentType":5126,
			"count":34,
			"type":"VEC3"
		},
		{
			"bufferView":34,
			"componentType":5126,
			"count":34,
			"type":"VEC2"
		},
		{
			"bufferView":35,
			"componentType":5123,
			"count":60,
			"type":"SCALAR"
		},
		{
			"bufferView":36,
			"componentType":5126,
			"count":3648,
			"max":[
				0.4773634076118469,
				0.4773634076118469,
				0.393914133310318
			],
			"min":[
				-0.47736334800720215,
				-0.47736337780952454,
				-7.037445902824402e-05
			],
			"type":"VEC3"
		},
		{
			"bufferView":37,
			"componentType":5126,
			"count":3648,
			"type":"VEC3"
		},
		{
			"bufferView":38,
			"componentType":5126,
			"count":3648,
			"type":"VEC2"
		},
		{
			"bufferView":39,
			"componentType":5123,
			"count":10185,
			"type":"SCALAR"
		},
		{
			"bufferView":40,
			"componentType":5126,
			"count":456,
			"max":[
				0.3426511287689209,
				0.34325236082077026,
				0.4170539081096649
			],
			"min":[
				-0.3426510691642761,
				-0.32486799359321594,
				0.3668968379497528
			],
			"type":"VEC3"
		},
		{
			"bufferView":41,
			"componentType":5126,
			"count":456,
			"type":"VEC3"
		},
		{
			"bufferView":42,
			"componentType":5126,
			"count":456,
			"type":"VEC2"
		},
		{
			"bufferView":43,
			"componentType":5123,
			"count":945,
			"type":"SCALAR"
		},
		{
			"bufferView":44,
			"componentType":5126,
			"count":3648,
			"max":[
				0.4773634076118469,
				0.4773634076118469,
				0.393914133310318
			],
			"min":[
				-0.47736334800720215,
				-0.47736337780952454,
				-7.037445902824402e-05
			],
			"type":"VEC3"
		},
		{
			"bufferView":45,
			"componentType":5126,
			"count":3648,
			"type":"VEC3"
		},
		{
			"bufferView":46,
			"componentType":5126,
			"count":3648,
			"type":"VEC2"
		},
		{
			"bufferView":47,
			"componentType":5126,
			"count":456,
			"max":[
				0.3426511287689209,
				0.34325236082077026,
				0.4170539081096649
			],
			"min":[
				-0.3426510691642761,
				-0.32486799359321594,
				0.3668968379497528
			],
			"type":"VEC3"
		},
		{
			"bufferView":48,
			"componentType":5126,
			"count":456,
			"type":"VEC3"
		},
		{
			"bufferView":49,
			"componentType":5126,
			"count":456,
			"type":"VEC2"
		},
		{
			"bufferView":50,
			"componentType":5126,
			"count":3648,
			"max":[
				0.4773634076118469,
				0.4773634076118469,
				0.393914133310318
			],
			"min":[
				-0.47736334800720215,
				-0.47736337780952454,
				-7.037445902824402e-05
			],
			"type":"VEC3"
		},
		{
			"bufferView":51,
			"componentType":5126,
			"count":3648,
			"type":"VEC3"
		},
		{
			"bufferView":52,
			"componentType":5126,
			"count":3648,
			"type":"VEC2"
		},
		{
			"bufferView":53,
			"componentType":5126,
			"count":456,
			"max":[
				0.3426511287689209,
				0.34325236082077026,
				0.4170539081096649
			],
			"min":[
				-0.3426510691642761,
				-0.32486799359321594,
				0.3668968379497528
			],
			"type":"VEC3"
		},
		{
			"bufferView":54,
			"componentType":5126,
			"count":456,
			"type":"VEC3"
		},
		{
			"bufferView":55,
			"componentType":5126,
			"count":456,
			"type":"VEC2"
		},
		{
			"bufferView":56,
			"componentType":5126,
			"count":3648,
			"max":[
				0.4773634076118469,
				0.4773634076118469,
				0.393914133310318
			],
			"min":[
				-0.47736334800720215,
				-0.47736337780952454,
				-7.037445902824402e-05
			],
			"type":"VEC3"
		},
		{
			"bufferView":57,
			"componentType":5126,
			"count":3648,
			"type":"VEC3"
		},
		{
			"bufferView":58,
			"componentType":5126,
			"count":3648,
			"type":"VEC2"
		},
		{
			"bufferView":59,
			"componentType":5126,
			"count":456,
			"max":[
				0.3426511287689209,
				0.34325236082077026,
				0.4170539081096649
			],
			"min":[
				-0.3426510691642761,
				-0.32486799359321594,
				0.3668968379497528
			],
			"type":"VEC3"
		},
		{
			"bufferView":60,
			"componentType":5126,
			"count":456,
			"type":"VEC3"
		},
		{
			"bufferView":61,
			"componentType":5126,
			"count":456,
			"type":"VEC2"
		}
	],
	"bufferViews":[
		{
			"buffer":0,
			"byteLength":13080,
			"byteOffset":0,
			"target":34962
		},
		{
			"buffer":0,
			"byteLength":13080,
			"byteOffset":13080,
			"target":34962
		},
		{
			"buffer":0,
			"byteLength":8720,
			"byteOffset":26160,
			"target":34962
		},
		{
			"buffer":0,
			"byteLength":3636,
			"byteOffset":34880,
			"target":34963
		},
		{
			"buffer":0,
			"byteLength":7872,
			"byteOffset":38516,
			"target":34962
		},
		{
			"buffer":0,
			"byteLength":7872,
			"byteOffset":46388,
			"target":34962
		},
		{
			"buffer":0,
			"byteLength":5248,
			"byteOffset":54260,
			"target":34962
		},
		{
			"buffer":0,
			"byteLength":2208,
			"byteOffset":59508,
			"target":34963
		},
		{
			"buffer":0,
			"byteLength":1416,
			"byteOffset":61716,
			"target":34962
		},
		{
			"buffer":0,
			"byteLength":1416,
			"byteOffset":63132,
			"target":34962
		},
		{
			"buffer":0,
			"byteLength":944,
			"byteOffset":64548,
			"target":34962
		},
		{
			"buffer":0,
			"byteLength":408,
			"byteOffset":65492,
			"target":34963
		},
		{
			"buffer":0,
			"byteLength":1992,
			"byteOffset":65900,
			"target":34962
		},
		{
			"buffer":0,
			"byteLength":1992,
			"byteOffset":67892,
			"target":34962
		},
		{
			"buffer":0,
			"byteLength":1328,
			"byteOffset":69884,
			"target":34962
		},
		{
			"buffer":0,
			"byteLength":636,
			"byteOffset":71212,
			"target":34963
		},
		{
			"buffer":0,
			"byteLength":1080,
			"byteOffset":71848,
			"target":34962
		},
		{
			"buffer":0,
			"byteLength":1080,
			"byteOffset":72928,
			"target":34962
		},
		{
			"buffer":0,
			"byteLength":720,
			"byteOffset":74008,
			"target":34962
		},
		{
			"buffer":0,
			"byteLength":324,
			"byteOffset":74728,
			"target":34963
		},
		{
			"buffer":0,
			"byteLength":960,
			"byteOffset":75052,
			"target":34962
		},
		{
			"buffer":0,
			"byteLength":960,
			"byteOffset":76012,
			"target":34962
		},
		{
			"buffer":0,
			"byteLength":640,
			"byteOffset":76972,
			"target":34962
		},
		{
			"buffer":0,
			"byteLength":288,
			"byteOffset":77612,
			"target":34963
		},
		{
			"buffer":0,
			"byteLength":264,
			"byteOffset":77900,
			"target":34962
		},
		{
			"buffer":0,
			"byteLength":264,
			"byteOffset":78164,
			"target":34962
		},
		{
			"buffer":0,
			"byteLength":176,
			"byteOffset":78428,
			"target":34962
		},
		{
			"buffer":0,
			"byteLength":72,
			"byteOffset":78604,
			"target":34963
		},
		{
			"buffer":0,
			"byteLength":96,
			"byteOffset":78676,
			"target":34962
		},
		{
			"buffer":0,
			"byteLength":96,
			"byteOffset":78772,
			"target":34962
		},
		{
			"buffer":0,
			"byteLength":64,
			"byteOffset":78868,
			"target":34962
		},
		{
			"buffer":0,
			"byteLength":36,
			"byteOffset":78932,
			"target":34963
		},
		{
			"buffer":0,
			"byteLength":408,
			"byteOffset":78968,
			"target":34962
		},
		{
			"buffer":0,
			"byteLength":408,
			"byteOffset":79376,
			"target":34962
		},
		{
			"buffer":0,
			"byteLength":272,
			"byteOffset":79784,
			"target":34962
		},
		{
			"buffer":0,
			"byteLength":120,
			"byteOffset":80056,
			"target":34963
		},
		{
			"buffer":0,
			"byteLength":43776,
			"byteOffset":80176,
			"target":34962
		},
		{
			"buffer":0,
			"byteLength":43776,
			"byteOffset":123952,
			"target":34962
		},
		{
			"buffer":0,
			"byteLength":29184,
			"byteOffset":167728,
			"target":34962
		},
		{
			"buffer":0,
			"byteLength":20370,
			"byteOffset":196912,
			"target":34963
		},
		{
			"buffer":0,
			"byteLength":5472,
			"byteOffset":217284,
			"target":34962
		},
		{
			"buffer":0,
			"byteLength":5472,
			"byteOffset":222756,
			"target":34962
		},
		{
			"buffer":0,
			"byteLength":3648,
			"byteOffset":228228,
			"target":34962
		},
		{
			"buffer":0,
			"byteLength":1890,
			"byteOffset":231876,
			"target":34963
		},
		{
			"buffer":0,
			"byteLength":43776,
			"byteOffset":233768,
			"target":34962
		},
		{
			"buffer":0,
			"byteLength":43776,
			"byteOffset":277544,
			"target":34962
		},
		{
			"buffer":0,
			"byteLength":29184,
			"byteOffset":321320,
			"target":34962
		},
		{
			"buffer":0,
			"byteLength":5472,
			"byteOffset":350504,
			"target":34962
		},
		{
			"buffer":0,
			"byteLength":5472,
			"byteOffset":355976,
			"target":34962
		},
		{
			"buffer":0,
			"byteLength":3648,
			"byteOffset":361448,
			"target":34962
		},
		{
			"buffer":0,
			"byteLength":43776,
			"byteOffset":365096,
			"target":34962
		},
		{
			"buffer":0,
			"byteLength":43776,
			"byteOffset":408872,
			"target":34962
		},
		{
			"buffer":0,
			"byteLength":29184,
			"byteOffset":452648,
			"target":34962
		},
		{
			"buffer":0,
			"byteLength":5472,
			"byteOffset":481832,
			"target":34962
		},
		{
			"buffer":0,
			"byteLength":5472,
			"byteOffset":487304,
			"target":34962
		},
		{
			"buffer":0,
			"byteLength":3648,
			"byteOffset":492776,
			"target":34962
		},
		{
			"buffer":0,
			"byteLength":43776,
			"byteOffset":496424,
			"target":34962
		},
		{
			"buffer":0,
			"byteLength":43776,
			"byteOffset":540200,
			"target":34962
		},
		{
			"buffer":0,
			"byteLength":29184,
			"byteOffset":583976,
			"target":34962
		},
		{
			"buffer":0,
			"byteLength":5472,
			"byteOffset":613160,
			"target":34962
		},
		{
			"buffer":0,
			"byteLength":5472,
			"byteOffset":618632,
			"target":34962
		},
		{
			"buffer":0,
			"byteLength":3648,
			"byteOffset":624104,
			"target":34962
		}
	],
	"buffers":[
		{
			"byteLength":627752,
			"uri":"SHC%20Free%20Cybertruck-bd8116590ccf6afcfabb3e64a09c9ea2.bin"
		}
	]
}
